<?xml version="1.0" encoding="UTF-8"?>
<svg width="64" height="64" viewBox="0 0 64 64" fill="none" xmlns="http://www.w3.org/2000/svg">
    <!-- Lightbulb -->
    <path d="M24 48h16v8H24z" fill="#FF0000"/>
    <path d="M32 8c-8.8 0-16 7.2-16 16 0 5.6 2.9 10.5 7.2 13.4C26.4 40 28 44 28 44h12s1.6-4 4.8-6.6C49.1 34.5 52 29.6 52 24c0-8.8-7.2-16-16-16z" fill="#FF0000" opacity="0.1" stroke="#FF0000" stroke-width="2"/>
    
    <!-- Rays -->
    <path d="M32 4v8M52 24h8M12 24h8M18 10l6 6M46 10l-6 6" stroke="#FF0000" stroke-width="2"/>
    
    <!-- Filament -->
    <path d="M28 36c0-4 4-4 4-8s-4-4-4-8 4-4 4-8" stroke="#FF0000" stroke-width="2"/>
</svg> 