<?xml version="1.0" encoding="UTF-8"?>
<svg width="24px" height="24px" viewBox="0 0 24 24" version="1.1" xmlns="http://www.w3.org/2000/svg">
    <g stroke="none" stroke-width="1" fill="none" fill-rule="evenodd">
        <path d="M12,2 C17.5228475,2 22,6.4771525 22,12 C22,17.5228475 17.5228475,22 12,22 C6.4771525,22 2,17.5228475 2,12 C2,6.4771525 6.4771525,2 12,2 Z M12,4 C7.581722,4 4,7.581722 4,12 C4,16.418278 7.581722,20 12,20 C16.418278,20 20,16.418278 20,12 C20,7.581722 16.418278,4 12,4 Z" fill="#FF0000" fill-rule="nonzero"/>
        <path d="M12,6 C12.5522847,6 13,6.44771525 13,7 L13,11.5857864 L15.7071068,14.2928932 C16.0976311,14.6834175 16.0976311,15.3165825 15.7071068,15.7071068 C15.3165825,16.0976311 14.6834175,16.0976311 14.2928932,15.7071068 L11.2928932,12.7071068 C11.1053568,12.5195704 11,12.2652165 11,12 L11,7 C11,6.44771525 11.4477153,6 12,6 Z" fill="#FF0000" fill-rule="nonzero"/>
        <path d="M16.2426407,7.75735931 C16.6331649,7.36683506 17.2663299,7.36683506 17.6568542,7.75735931 L18.3642136,8.46471863 C18.7547379,8.85524288 18.7547379,9.48840788 18.3642136,9.87893213 C17.9736894,10.2694564 17.3405244,10.2694564 16.9500001,9.87893213 L16.2426407,9.17157281 C15.8521164,8.78104858 15.8521164,8.14788356 16.2426407,7.75735931 Z" fill="#FF0000" fill-rule="nonzero"/>
    </g>
</svg>
